M48
;GenerationSoftware,Autodesk,EAGLE,9.1.3*%
;CreationDate,2018-11-21T18:37:05Z*%
FMAT,2
ICI,OFF
METRIC,TZ,000.000
T6C0.660
T5C0.733
T4C0.813
T3C1.100
T2C1.194
T1C1.400
%
G90
M71
T1
X3391Y24159
X3391Y11959
X9391Y9959
X15391Y11959
X15391Y24159
T2
X19772Y34036
X8850Y34036
X3850Y34036
X14772Y34036
T3
X25273Y25146
X27813Y25146
X25273Y28448
X27813Y28448
X19050Y6096
X21590Y6096
X28194Y6096
X25654Y6096
X19050Y9271
X21590Y9271
T4
X21209Y17526
X18669Y17526
X21082Y14224
X18542Y14224
X4826Y3302
X3556Y5207
X2286Y3302
T5
X41910Y24130
X41910Y26670
X31750Y29210
X41910Y31750
X41910Y34290
X41910Y36830
X31750Y36830
X41910Y29210
X31750Y34290
X31750Y31750
X31750Y26670
X31750Y24130
X31750Y21590
X31750Y19050
X31750Y16510
X31750Y13970
X31750Y11430
X31750Y8890
X31750Y6350
X31750Y3810
X41910Y11430
X41910Y3810
X41910Y6350
X41910Y8890
X41910Y13970
X41910Y16510
X41910Y19050
X41910Y21590
T6
X26543Y13054
X26543Y17934
M30